<svg xmlns="http://www.w3.org/2000/svg" viewBox="0 0 1024 1024" role="img" aria-label="Team Progress Manager app icon">
  <defs>
    <linearGradient id="bg" x1="144" y1="88" x2="880" y2="936" gradientUnits="userSpaceOnUse">
      <stop offset="0" stop-color="#1e3a5f"/>
      <stop offset="0.55" stop-color="#2563eb"/>
      <stop offset="1" stop-color="#12805c"/>
    </linearGradient>
    <linearGradient id="card" x1="276" y1="276" x2="748" y2="748" gradientUnits="userSpaceOnUse">
      <stop offset="0" stop-color="#ffffff"/>
      <stop offset="1" stop-color="#eef7ff"/>
    </linearGradient>
    <filter id="shadow" x="-20%" y="-20%" width="140%" height="150%" color-interpolation-filters="sRGB">
      <feDropShadow dx="0" dy="26" stdDeviation="28" flood-color="#0f172a" flood-opacity="0.26"/>
    </filter>
  </defs>

  <rect width="1024" height="1024" rx="224" fill="url(#bg)"/>

  <g opacity="0.3" fill="none" stroke="#ffffff" stroke-width="34" stroke-linecap="round">
    <path d="M302 274c126-88 294-89 420-2"/>
    <path d="M244 726c62 78 158 128 268 128s206-50 268-128"/>
  </g>

  <g fill="#dbeafe" opacity="0.9">
    <circle cx="292" cy="300" r="62"/>
    <circle cx="732" cy="300" r="62"/>
    <circle cx="512" cy="794" r="62"/>
  </g>
  <g fill="#ffffff">
    <circle cx="292" cy="286" r="32"/>
    <path d="M224 366c0-38 31-69 68-69s68 31 68 69v16H224z"/>
    <circle cx="732" cy="286" r="32"/>
    <path d="M664 366c0-38 31-69 68-69s68 31 68 69v16H664z"/>
    <circle cx="512" cy="780" r="32"/>
    <path d="M444 860c0-38 31-69 68-69s68 31 68 69v16H444z"/>
  </g>

  <g filter="url(#shadow)">
    <rect x="260" y="316" width="504" height="386" rx="92" fill="url(#card)"/>
    <rect x="324" y="394" width="226" height="34" rx="17" fill="#1e3a5f"/>
    <rect x="324" y="488" width="182" height="34" rx="17" fill="#94a3b8"/>
    <rect x="324" y="582" width="130" height="34" rx="17" fill="#94a3b8"/>
    <circle cx="656" cy="510" r="96" fill="#16a34a"/>
    <path d="M606 511l34 34 70-82" fill="none" stroke="#ffffff" stroke-width="42" stroke-linecap="round" stroke-linejoin="round"/>
  </g>
</svg>
